<svg xmlns="http://www.w3.org/2000/svg" viewBox="0 0 60 60" fill="none"><g stroke="currentColor" stroke-linecap="round" stroke-linejoin="round" clip-path="url(#a)"><path stroke-width="1.5" d="m34.933 43.733-5.6 1.6 1.6-5.6 9.572-9.572a2.83 2.83 0 0 1 4 4l-9.572 9.572ZM39.305 31.363l4 4M30.933 39.735l4 4M26.667 38.667H16a1.333 1.333 0 0 1-1.333-1.334V18.667A1.333 1.333 0 0 1 16 17.333h24a1.333 1.333 0 0 1 1.333 1.334v8M21.333 14.668v6.667"/><path d="M34.667 14.668v6.667M14.667 24.001h26.666"/></g><defs><clipPath id="a"><path fill="#fff" d="M14 14h32v32H14z"/></clipPath></defs></svg>