<svg width="32" height="32" viewBox="0 0 32 32" fill="none" xmlns="http://www.w3.org/2000/svg">
<g clip-path="url(#clip0_771_15546)">
<path d="M15 22.5H5.5C5.23478 22.5 4.98043 22.3946 4.79289 22.2071C4.60536 22.0196 4.5 21.7652 4.5 21.5V5.5C4.5 5.23478 4.60536 4.98043 4.79289 4.79289C4.98043 4.60536 5.23478 4.5 5.5 4.5H20.5C20.7652 4.5 21.0196 4.60536 21.2071 4.79289C21.3946 4.98043 21.5 5.23478 21.5 5.5V15.5M19.7 26.3L15.5 27.5L16.7 23.3M19.7 26.3L26.879 19.121C27.076 18.924 27.2322 18.6902 27.3388 18.4328C27.4455 18.1754 27.5003 17.8996 27.5003 17.621C27.5003 17.3424 27.4455 17.0666 27.3388 16.8092C27.2322 16.5518 27.076 16.318 26.879 16.121C26.682 15.924 26.4482 15.7678 26.1908 15.6612C25.9334 15.5545 25.6576 15.4997 25.379 15.4997C25.1004 15.4997 24.8246 15.5545 24.5672 15.6612C24.3098 15.7678 24.076 15.924 23.879 16.121L16.7 23.3M19.7 26.3L16.7 23.3M22.979 17.021L25.979 20.021M10 8.5H17M8 11.5H17M8 14.5H17M8 17.5H14.5" stroke="currentColor" stroke-width="1.5" stroke-linecap="round" stroke-linejoin="round"/>
</g>
<defs>
<clipPath id="clip0_771_15546">
<rect width="24" height="24" fill="white" transform="translate(4 4)"/>
</clipPath>
</defs>
</svg>