<svg width="32" height="32" viewBox="0 0 32 32" fill="none" xmlns="http://www.w3.org/2000/svg">
<g clip-path="url(#clip0_932_23734)">
<path d="M14.668 24.6665H2.0013C1.64768 24.6665 1.30854 24.526 1.05849 24.276C0.808445 24.0259 0.667969 23.6868 0.667969 23.3332V1.99984C0.667969 1.64622 0.808445 1.30708 1.05849 1.05703C1.30854 0.80698 1.64768 0.666504 2.0013 0.666504H22.0013C22.3549 0.666504 22.6941 0.80698 22.9441 1.05703C23.1942 1.30708 23.3346 1.64622 23.3346 1.99984V15.3332M20.9346 29.7332L15.3346 31.3332L16.9346 25.7332M20.9346 29.7332L30.5066 20.1612C30.7693 19.8985 30.9776 19.5867 31.1198 19.2436C31.2619 18.9004 31.3351 18.5326 31.3351 18.1612C31.3351 17.7897 31.2619 17.4219 31.1198 17.0788C30.9776 16.7356 30.7693 16.4238 30.5066 16.1612C30.244 15.8985 29.9322 15.6902 29.589 15.548C29.2459 15.4059 28.8781 15.3327 28.5066 15.3327C28.1352 15.3327 27.7674 15.4059 27.4242 15.548C27.0811 15.6902 26.7693 15.8985 26.5066 16.1612L16.9346 25.7332M20.9346 29.7332L16.9346 25.7332M25.3066 17.3612L29.3066 21.3612M8.0013 5.99984H17.3346M5.33464 9.99984H17.3346M5.33464 13.9998H17.3346M5.33464 17.9998H14.0013" stroke="#353434" stroke-width="1.5" stroke-linecap="round" stroke-linejoin="round"/>
</g>
<defs>
<clipPath id="clip0_932_23734">
<rect width="32" height="32" fill="white"/>
</clipPath>
</defs>
</svg>
