<svg xmlns="http://www.w3.org/2000/svg" fill="none" viewBox="0 0 60 60"><path stroke="currentColor" stroke-linecap="round" stroke-linejoin="round" stroke-width="1.5" d="M44.526 22.5v15a.968.968 0 0 1-.499.848l-13.557 7.53a.968.968 0 0 1-.94 0l-13.557-7.53a.969.969 0 0 1-.499-.848v-15a.968.968 0 0 1 .499-.846l13.557-7.533a.968.968 0 0 1 .94 0l13.557 7.533a.969.969 0 0 1 .499.846Z"/><path stroke="currentColor" stroke-linecap="round" stroke-linejoin="round" stroke-width="1.5" d="m16.326 22.405 13.203 7.334a.969.969 0 0 0 .94 0l13.25-7.36m-13.72 22.147V30"/></svg>