<svg width="24" height="24" viewBox="0 0 24 24" fill="none" xmlns="http://www.w3.org/2000/svg">
  <g clip-path="url(#clip0_771_15536)">
    <path d="M18.206 11.93L19.745 15.5H22.74C22.8912 15.4943 23.0405 15.5354 23.1675 15.6177C23.2944 15.6999 23.3929 15.8194 23.4495 15.9598C23.506 16.1001 23.5179 16.2545 23.4835 16.4018C23.449 16.5492 23.3699 16.6823 23.257 16.783L20.657 19.099L22.097 22.412C22.1602 22.5635 22.1743 22.7311 22.1373 22.891C22.1003 23.051 22.0141 23.1953 21.8908 23.3037C21.7675 23.4121 21.6133 23.4791 21.4499 23.4953C21.2865 23.5115 21.1222 23.4761 20.98 23.394L17.5 21.433L14.02 23.394C13.8778 23.4761 13.7135 23.5115 13.5501 23.4953C13.3867 23.4791 13.2325 23.4121 13.1092 23.3037C12.9859 23.1953 12.8997 23.051 12.8627 22.891C12.8257 22.7311 12.8398 22.5635 12.903 22.412L14.343 19.099L11.743 16.783C11.6297 16.6827 11.5502 16.5498 11.5154 16.4026C11.4805 16.2554 11.492 16.101 11.5483 15.9605C11.6045 15.8201 11.7028 15.7004 11.8297 15.618C11.9566 15.5356 12.1058 15.4944 12.257 15.5H15.257L16.798 11.93C16.8665 11.803 16.9682 11.6969 17.0921 11.623C17.216 11.549 17.3577 11.51 17.502 11.51C17.6463 11.51 17.7879 11.549 17.9119 11.623C18.0358 11.6969 18.1374 11.803 18.206 11.93Z" stroke="currentColor" stroke-width="1.5" stroke-linecap="round" stroke-linejoin="round" />
    <path d="M8.5 15.5H1.5C1.23478 15.5 0.98043 15.3946 0.792893 15.2071C0.605357 15.0196 0.5 14.7652 0.5 14.5V4.914C0.500057 4.64881 0.605451 4.39449 0.793 4.207L4.207 0.793C4.39449 0.605451 4.64881 0.500057 4.914 0.5H10.086C10.3512 0.500057 10.6055 0.605451 10.793 0.793L14.207 4.207C14.3945 4.39449 14.4999 4.64881 14.5 4.914V10.5" stroke="currentColor" stroke-width="1.5" stroke-linecap="round" stroke-linejoin="round" />
    <path d="M14.4101 4.5H0.590088" stroke="currentColor" stroke-width="1.5" stroke-linecap="round" stroke-linejoin="round" />
    <path d="M7.5 0.5V4.5" stroke="currentColor" stroke-width="1.5" stroke-linecap="round" stroke-linejoin="round" />
  </g>
  <defs>
    <clipPath id="clip0_771_15536">
      <rect width="24" height="24" fill="white" />
    </clipPath>
  </defs>
</svg>