<svg width="25" height="25" viewBox="0 0 25 25" fill="none" xmlns="http://www.w3.org/2000/svg">
  <g clip-path="url(#clip0_455_5831)">
    <path d="M8 5V2C8 1.73478 8.10536 1.48043 8.29289 1.29289C8.48043 1.10536 8.73478 1 9 1H16C16.2652 1 16.5196 1.10536 16.7071 1.29289C16.8946 1.48043 17 1.73478 17 2V5" stroke="currentColor" stroke-width="1.5" stroke-linecap="round" stroke-linejoin="round" />
    <path d="M1 5H24" stroke="currentColor" stroke-width="1.5" stroke-linecap="round" stroke-linejoin="round" />
    <path d="M21.5 5L19.688 22.209C19.6364 22.7004 19.4047 23.1552 19.0376 23.4859C18.6706 23.8166 18.1941 23.9997 17.7 24H7.3C6.80576 24 6.32903 23.817 5.96175 23.4863C5.59447 23.1555 5.36265 22.7005 5.311 22.209L3.5 5" stroke="currentColor" stroke-width="1.5" stroke-linecap="round" stroke-linejoin="round" />
    <path d="M12.5 9.375V20.3125" stroke="currentColor" stroke-width="1.5" stroke-linecap="round" stroke-linejoin="round" />
    <path d="M17.1875 9.375L16.6666 20.3125" stroke="currentColor" stroke-width="1.5" stroke-linecap="round" stroke-linejoin="round" />
    <path d="M7.8125 9.375L8.33333 20.3125" stroke="currentColor" stroke-width="1.5" stroke-linecap="round" stroke-linejoin="round" />
  </g>
  <defs>
    <clipPath id="clip0_455_5831">
      <rect width="25" height="25" fill="white" />
    </clipPath>
  </defs>
</svg>