<svg viewBox="0 0 19 21" fill="none" xmlns="http://www.w3.org/2000/svg">
<path d="M17.5 7.5L15.505 18.846C15.4236 19.3094 15.1815 19.7292 14.8212 20.0317C14.4609 20.3342 14.0055 20.5 13.535 20.5H5.465C4.99454 20.5 4.53913 20.3342 4.17882 20.0317C3.81852 19.7292 3.57639 19.3094 3.495 18.846L1.5 7.5M18.5 4.5H12.875M12.875 4.5V2.5C12.875 1.96957 12.6643 1.46086 12.2892 1.08579C11.9141 0.710714 11.4054 0.5 10.875 0.5H8.125C7.59457 0.5 7.08586 0.710714 6.71079 1.08579C6.33571 1.46086 6.125 1.96957 6.125 2.5V4.5M12.875 4.5H6.125M0.5 4.5H6.125" stroke="currentColor" stroke-linecap="round" stroke-linejoin="round"/>
</svg>
