<svg viewBox="0 0 18 18" fill="none" xmlns="http://www.w3.org/2000/svg">
<path d="M10.94 2.56607L12.42 1.08607C12.6057 0.90027 12.8262 0.752879 13.0689 0.652318C13.3116 0.551758 13.5717 0.5 13.8345 0.5C14.0972 0.5 14.3573 0.551758 14.6 0.652318C14.8427 0.752879 15.0632 0.90027 15.249 1.08607L16.663 2.50007C17.0379 2.87513 17.2485 3.38374 17.2485 3.91407C17.2485 4.4444 17.0379 4.95302 16.663 5.32807L15.183 6.80807M10.94 2.56607L1.32396 12.1811C0.991939 12.5131 0.787326 12.9514 0.745958 13.4191L0.503957 16.1591C0.49096 16.3047 0.510068 16.4515 0.559934 16.5889C0.6098 16.7264 0.68921 16.8513 0.792567 16.9547C0.895925 17.0582 1.02071 17.1377 1.15814 17.1877C1.29557 17.2377 1.44229 17.2569 1.58796 17.2441L4.32796 17.0021C4.79638 16.9612 5.23542 16.7565 5.56796 16.4241L15.183 6.80807M10.94 2.56607L15.183 6.80807" stroke="currentColor" stroke-linecap="round" stroke-linejoin="round"/>
</svg>
