<svg width="20" height="20" viewBox="0 0 20 20" fill="none" xmlns="http://www.w3.org/2000/svg">
  <g clip-path="url(#clip0_491_7635)">
    <path d="M5.80496 18.3192L0.416626 19.5833L1.68079 14.1958L14.97 0.90499C15.1247 0.750154 15.3085 0.627328 15.5107 0.543527C15.713 0.459727 15.9298 0.416595 16.1487 0.416595C16.3676 0.416595 16.5844 0.459727 16.7867 0.543527C16.9889 0.627328 17.1727 0.750154 17.3275 0.90499L19.0958 2.67249C19.2506 2.82726 19.3735 3.01102 19.4573 3.21328C19.5411 3.41553 19.5842 3.63231 19.5842 3.85124C19.5842 4.07017 19.5411 4.28695 19.4573 4.4892C19.3735 4.69145 19.2506 4.87522 19.0958 5.02999L5.80496 18.3192Z" stroke="currentColor" stroke-width="1.5" stroke-linecap="round" stroke-linejoin="round" />
    <path d="M18.5084 5.62084L14.3809 1.49417" stroke="currentColor" stroke-linecap="round" stroke-linejoin="round" />
    <path d="M17.3192 6.80999L13.2017 2.67249" stroke="currentColor" stroke-linecap="round" stroke-linejoin="round" />
    <path d="M6.01501 18.1108L1.89001 13.9858" stroke="currentColor" stroke-linecap="round" stroke-linejoin="round" />
  </g>
  <defs>
    <clipPath id="clip0_491_7635">
      <rect width="20" height="20" fill="white" />
    </clipPath>
  </defs>
</svg>