<svg width="36" height="36" viewBox="0 0 36 36" fill="none" xmlns="http://www.w3.org/2000/svg">
<path d="M35.0457 14.6766L35.0363 14.6391L29.7769 1.275C29.5425 0.520312 28.8441 0 28.0519 0H6.73316C5.93629 0 5.22848 0.529688 5.00348 1.29375L0.0862889 14.5219L0.072227 14.5547L0.0628514 14.5922C0.00191392 14.8219 -0.0168361 15.0562 0.0159764 15.2859C0.0112889 15.3609 0.00660156 15.4359 0.00660156 15.5109V32.6625C0.00784108 33.418 0.308506 34.1422 0.842716 34.6764C1.37693 35.2106 2.10112 35.5113 2.8566 35.5125H32.2566C33.8269 35.5125 35.1066 34.2328 35.1113 32.6625V15.5109C35.1113 15.45 35.1113 15.3891 35.1066 15.3375C35.1254 15.1078 35.1066 14.8875 35.0457 14.6766ZM21.18 12.6609L21.166 13.3969C21.1285 15.5016 19.6754 16.9172 17.5519 16.9172C16.516 16.9172 15.6254 16.5844 14.9832 15.9516C14.341 15.3187 13.9894 14.4375 13.9707 13.3969L13.9566 12.6609H4.30973L8.03629 3.6H26.7488L30.5785 12.6609H21.18ZM3.60191 16.2609H10.9754C12.1144 18.9375 14.5379 20.5172 17.5566 20.5172C19.1363 20.5172 20.6035 20.0766 21.7894 19.2422C22.83 18.5109 23.641 17.4891 24.166 16.2609H31.5019V31.9125H3.60191V16.2609Z" fill="currentColor"/>
</svg>
