<svg width="81" height="25" viewBox="0 0 81 25" fill="none" xmlns="http://www.w3.org/2000/svg">
<path d="M-0.00143725 23.9761V0.576073H14.0386V3.16807H4.96656V10.8721H12.9586V13.3921H4.96656V21.3841H14.5426V23.9761H-0.00143725ZM22.5855 23.9761L16.2855 5.97607H22.0815L25.6095 18.7921H25.7535L29.7855 5.97607H32.9175L26.5455 23.9761H22.5855ZM42.2024 24.3721C39.5384 24.3721 37.4624 23.6401 35.9744 22.1761C34.5104 20.6881 33.7784 18.3961 33.7784 15.3001C33.7784 12.1801 34.4984 9.79207 35.9384 8.13607C37.3784 6.45607 39.3224 5.61607 41.7704 5.61607C44.0024 5.61607 45.7304 6.32407 46.9544 7.74007C48.2024 9.13207 48.8264 11.1361 48.8264 13.7521C48.8264 14.3521 48.7784 14.8561 48.6824 15.2641C48.6104 15.6721 48.5624 15.9241 48.5384 16.0201H38.8544C38.8784 18.1801 39.1904 19.7161 39.7904 20.6281C40.4144 21.5161 41.4104 21.9601 42.7784 21.9601C43.5944 21.9601 44.3144 21.7921 44.9384 21.4561C45.5624 21.0961 46.0544 20.7121 46.4144 20.3041C46.7744 19.8721 46.9544 19.6321 46.9544 19.5841L48.5744 20.8441C48.5744 20.9401 48.3224 21.2881 47.8184 21.8881C47.3384 22.4881 46.6184 23.0521 45.6584 23.5801C44.7224 24.1081 43.5704 24.3721 42.2024 24.3721ZM44.3624 13.6801V12.8521C44.3624 11.0281 44.1704 9.75607 43.7864 9.03607C43.4024 8.29207 42.7304 7.92007 41.7704 7.92007C41.0984 7.92007 40.5584 8.08807 40.1504 8.42407C39.7664 8.76007 39.4664 9.34807 39.2504 10.1881C39.0344 11.0041 38.9024 12.1681 38.8544 13.6801H44.3624ZM51.9452 5.97607H55.7972L56.4092 7.45207H56.5532C56.5532 7.40407 56.7452 7.22407 57.1292 6.91207C57.5372 6.60007 58.1132 6.31207 58.8572 6.04807C59.6012 5.76007 60.5252 5.61607 61.6292 5.61607C63.4772 5.61607 64.8572 6.12007 65.7692 7.12807C66.7052 8.11207 67.1732 9.66007 67.1732 11.7721V23.9761H62.3852V12.7441C62.3852 11.1361 62.2052 10.0441 61.8452 9.46807C61.5092 8.89207 60.8852 8.60407 59.9732 8.60407C59.3492 8.60407 58.7972 8.70007 58.3172 8.89207C57.8372 9.08407 57.4532 9.30007 57.1652 9.54007C56.8772 9.75607 56.7332 9.87607 56.7332 9.90007V23.9761H51.9452V5.97607ZM76.9683 24.3721C75.2643 24.3721 74.0043 23.9521 73.1883 23.1121C72.3723 22.2721 71.9643 20.8561 71.9643 18.8641V8.74807H70.2363V6.58807L72.0003 6.08407L74.3043 7.39098e-05H76.7523V5.97607H80.7123V8.74807H76.7523V17.6401C76.7523 18.7681 76.8003 19.6321 76.8963 20.2321C77.0163 20.8081 77.1963 21.2161 77.4363 21.4561C77.6763 21.6721 78.0123 21.7801 78.4443 21.7801C78.9243 21.7801 79.3563 21.7321 79.7402 21.6361C80.1243 21.5401 80.3163 21.4801 80.3163 21.4561L80.6043 23.5081C80.6043 23.5321 80.4723 23.6161 80.2083 23.7601C79.9443 23.9041 79.5363 24.0361 78.9843 24.1561C78.4563 24.3001 77.7843 24.3721 76.9683 24.3721Z" fill="#FFC831"/>
</svg>
