<svg width="40" height="40" viewBox="0 0 40 40" fill="none" xmlns="http://www.w3.org/2000/svg">
<g clip-path="url(#clip0_2055_2715)">
<path d="M21.2498 14.1666V11.25C21.2498 11.0289 21.162 10.817 21.0058 10.6607C20.8495 10.5044 20.6375 10.4166 20.4165 10.4166H11.2498C11.0288 10.4166 10.8169 10.5044 10.6606 10.6607C10.5043 10.817 10.4165 11.0289 10.4165 11.25V28.75C10.4165 28.971 10.5043 29.1829 10.6606 29.3392C10.8169 29.4955 11.0288 29.5833 11.2498 29.5833H20.4165C20.6375 29.5833 20.8495 29.4955 21.0058 29.3392C21.162 29.1829 21.2498 28.971 21.2498 28.75V25.8333" stroke="currentColor" stroke-width="1.5" stroke-linecap="round" stroke-linejoin="round"/>
<path d="M13.75 20H29.5833" stroke="currentColor" stroke-width="1.5" stroke-linecap="round" stroke-linejoin="round"/>
<path d="M17.9167 15.8334L13.75 20L17.9167 24.1667" stroke="currentColor" stroke-width="1.5" stroke-linecap="round" stroke-linejoin="round"/>
</g>
<defs>
<clipPath id="clip0_2055_2715">
<rect width="20" height="20" fill="white" transform="translate(10 10)"/>
</clipPath>
</defs>
</svg>