<svg xmlns="http://www.w3.org/2000/svg" viewBox="0 0 32 32" fill="none"><path fill="currentColor" d="M7.403 27.957a3.439 3.439 0 0 1-3.334-3.64c-.016-2.87 0-5.741 0-8.612a.667.667 0 1 1 1.334 0c0 2.934-.043 5.867 0 8.8.021 1.476 1.13 2.119 2.45 2.119h16.618a2.066 2.066 0 0 0 1.962-1.29c.129-.46.174-.94.134-1.415v-8.214a.666.666 0 1 1 1.333 0c0 2.966.113 5.954 0 8.916a3.421 3.421 0 0 1-3.56 3.334l-16.937.002Z"/><path fill="currentColor" d="M16.45 4.235a.613.613 0 0 0-.415-.184.13.13 0 0 1-.058-.008c-.029-.011-.036 0-.054.008a.613.613 0 0 0-.416.184l-4.892 4.892a.667.667 0 0 0 .942.942l3.755-3.753v14.323a.667.667 0 1 0 1.333 0V6.316l3.755 3.753a.667.667 0 0 0 .943-.942l-4.894-4.892Z"/></svg>