<svg width="32" height="32" viewBox="0 0 32 32" fill="none" xmlns="http://www.w3.org/2000/svg">
<path d="M22.2294 15.33C22.3952 15.5138 22.487 15.7525 22.487 16C22.487 16.2475 22.3952 16.4862 22.2294 16.67C21.1794 17.8 18.7894 20 15.9994 20C13.2094 20 10.8194 17.8 9.76936 16.67C9.60352 16.4862 9.51172 16.2475 9.51172 16C9.51172 15.7525 9.60352 15.5138 9.76936 15.33C10.8194 14.2 13.2094 12 15.9994 12C18.7894 12 21.1794 14.2 22.2294 15.33Z" stroke="#BABABA" stroke-linecap="round" stroke-linejoin="round"/>
<path d="M16 18C17.1046 18 18 17.1046 18 16C18 14.8954 17.1046 14 16 14C14.8954 14 14 14.8954 14 16C14 17.1046 14.8954 18 16 18Z" stroke="#BABABA" stroke-linecap="round" stroke-linejoin="round"/>
<path d="M10 22L22 10" stroke="#BABABA" stroke-width="1.5" stroke-linecap="round" stroke-linejoin="round"/>
</svg>
