<svg xmlns="http://www.w3.org/2000/svg" viewBox="0 0 60 60" fill="none"><g stroke="currentColor" stroke-linecap="round" stroke-linejoin="round" stroke-width="1.5" clip-path="url(#a)"><path d="M20.244 32.259v-8.126a2.032 2.032 0 0 1 2.033-2.04h2.032M20.244 28.192h3.05M27.559 32.259v-8.126a2.033 2.033 0 1 1 4.065 0v8.134M27.559 28.192h4.065M39.756 30.225a2.031 2.031 0 0 1-2.823 1.926 2.033 2.033 0 0 1-1.242-1.926v-6.092a2.035 2.035 0 0 1 2.822-1.925 2.032 2.032 0 0 1 1.243 1.925v6.092ZM37.723 32.259l2.033 2.032"/><path d="M43.897 17.15H16.103a1.436 1.436 0 0 0-1.436 1.435v18.52a1.436 1.436 0 0 0 1.436 1.436h3.325c-.3 1.56-.946 3.031-1.89 4.308 4.158.06 6.789-1.549 8.366-4.308h17.993a1.436 1.436 0 0 0 1.436-1.436v-18.52a1.436 1.436 0 0 0-1.436-1.436Z"/></g><defs><clipPath id="a"><path fill="#fff" d="M14 14h32v32H14z"/></clipPath></defs></svg>