<svg width="32" height="32" viewBox="0 0 32 32" fill="none" xmlns="http://www.w3.org/2000/svg">
  <g clip-path="url(#clip0_491_7861)">
    <path d="M27.0053 18H30C30.3536 18 30.6927 17.8595 30.9428 17.6095C31.1928 17.3594 31.3333 17.0203 31.3333 16.6667V15.3333C31.3333 14.9797 31.1928 14.6406 30.9428 14.3905C30.6927 14.1405 30.3536 14 30 14H27.004C26.7321 12.6485 26.2838 11.3386 25.6706 10.104L27.7893 7.98666C28.0393 7.73662 28.1797 7.39754 28.1797 7.04399C28.1797 6.69044 28.0393 6.35136 27.7893 6.10132L25.8986 4.21599C25.6486 3.96603 25.3095 3.82561 24.956 3.82561C24.6024 3.82561 24.2633 3.96603 24.0133 4.21599L21.8933 6.33466C20.6597 5.72123 19.3506 5.27293 18 5.00132V1.99999C18 1.64637 17.8595 1.30723 17.6094 1.05718C17.3594 0.807132 17.0202 0.666656 16.6666 0.666656H15.3333C14.9797 0.666656 14.6405 0.807132 14.3905 1.05718C14.1404 1.30723 14 1.64637 14 1.99999V4.99866C12.6489 5.27027 11.3394 5.71856 10.1053 6.33199L7.98529 4.21599C7.73526 3.96603 7.39618 3.82561 7.04263 3.82561C6.68907 3.82561 6.35 3.96603 6.09996 4.21599L4.21329 6.10266C3.96333 6.35269 3.82291 6.69177 3.82291 7.04532C3.82291 7.39888 3.96333 7.73795 4.21329 7.98799L6.33329 10.1067C5.72049 11.341 5.27223 12.6504 4.99996 14.0013H1.99996C1.64634 14.0013 1.3072 14.1418 1.05715 14.3918C0.807102 14.6419 0.666626 14.981 0.666626 15.3347V16.668C0.666626 17.0216 0.807102 17.3608 1.05715 17.6108C1.3072 17.8608 1.64634 18.0013 1.99996 18.0013H4.99463C5.26689 19.3523 5.71516 20.6616 6.32796 21.896L4.20796 24.016C3.958 24.266 3.81758 24.6051 3.81758 24.9587C3.81758 25.3122 3.958 25.6513 4.20796 25.9013L6.09996 27.7867C6.35 28.0366 6.68907 28.177 7.04263 28.177C7.39618 28.177 7.73526 28.0366 7.98529 27.7867L10.104 25.6667C11.3386 26.2799 12.6485 26.7281 14 27V30C14 30.3536 14.1404 30.6928 14.3905 30.9428C14.6405 31.1929 14.9797 31.3333 15.3333 31.3333H16.6666C17.0202 31.3333 17.3594 31.1929 17.6094 30.9428C17.8595 30.6928 18 30.3536 18 30V27.0067C19.3505 26.7346 20.6595 26.2863 21.8933 25.6733L24.0146 27.792C24.2647 28.042 24.6037 28.1824 24.9573 28.1824C25.3108 28.1824 25.6499 28.042 25.9 27.792L27.7853 25.9067C28.0353 25.6566 28.1757 25.3175 28.1757 24.964C28.1757 24.6104 28.0353 24.2714 27.7853 24.0213L25.6666 21.9013C26.2818 20.6651 26.7319 19.3535 27.0053 18Z" stroke="currentColor" stroke-width="1.5" stroke-linecap="round" stroke-linejoin="round" />
    <path d="M10 16.0013C10 17.5926 10.6321 19.1188 11.7574 20.244C12.8826 21.3692 14.4087 22.0013 16 22.0013C17.5913 22.0013 19.1174 21.3692 20.2426 20.244C21.3679 19.1188 22 17.5926 22 16.0013C22 14.41 21.3679 12.8839 20.2426 11.7587C19.1174 10.6335 17.5913 10.0013 16 10.0013C14.4087 10.0013 12.8826 10.6335 11.7574 11.7587C10.6321 12.8839 10 14.41 10 16.0013Z" stroke="currentColor" stroke-width="1.5" stroke-linecap="round" stroke-linejoin="round" />
  </g>
  <defs>
    <clipPath id="clip0_491_7861">
      <rect width="32" height="32" fill="white" />
    </clipPath>
  </defs>
</svg>