<svg width="32" height="32" viewBox="0 0 32 32" fill="none" xmlns="http://www.w3.org/2000/svg">
  <g clip-path="url(#clip0_488_7516)">
    <path d="M20.3641 13.5213L3.0881 30.8C2.83774 31.0504 2.49817 31.191 2.1441 31.191C1.79003 31.191 1.45046 31.0504 1.2001 30.8C0.949735 30.5496 0.809082 30.2101 0.809082 29.856C0.809082 29.5019 0.949735 29.1624 1.2001 28.912L18.4788 11.636" stroke="currentColor" stroke-width="1.5" stroke-linecap="round" stroke-linejoin="round" />
    <path d="M30.812 10.5587C31.1787 10.5587 31.2973 10.3067 31.0787 10.0147L28.592 6.71734L29.908 2.53334C30.0173 2.184 29.8213 1.98667 29.472 2.09734L25.2827 3.41334L21.9853 0.922672C21.6933 0.702672 21.452 0.821338 21.4413 1.18934L21.3573 5.86667L17.3453 8.18801C17.028 8.37201 17.0547 8.61067 17.4053 8.72134L21.8813 10.12L23.28 14.596C23.3893 14.9467 23.628 14.9733 23.8133 14.656L26.1333 10.6427L30.812 10.5587Z" stroke="currentColor" stroke-width="1.5" stroke-linecap="round" stroke-linejoin="round" />
  </g>
  <defs>
    <clipPath id="clip0_488_7516">
      <rect width="32" height="32" fill="white" />
    </clipPath>
  </defs>
</svg>