<svg xmlns="http://www.w3.org/2000/svg" fill="none" viewBox="0 0 60 60"><g stroke="currentColor" stroke-linecap="round" stroke-linejoin="round" stroke-width="1.5" clip-path="url(#a)"><path d="M34.364 27.522 17.088 44.8a1.335 1.335 0 1 1-1.888-1.888l17.278-17.276M44.813 24.558c.367 0 .486-.252.267-.543l-2.487-3.298 1.316-4.184c.11-.35-.086-.547-.436-.436l-4.19 1.316-3.296-2.49c-.292-.22-.534-.102-.544.266l-.084 4.677-4.012 2.322c-.318.184-.291.422.06.533l4.476 1.399 1.398 4.476c.11.35.348.377.534.06l2.32-4.014 4.678-.084Z"/></g><defs><clipPath id="a"><path fill="#fff" d="M14 14h32v32H14z"/></clipPath></defs></svg>