<svg width="40" height="40" viewBox="0 0 40 40" fill="none" xmlns="http://www.w3.org/2000/svg">
<g clip-path="url(#clip0_2123_34472)">
<path d="M17 16.8898C16.9996 16.3915 17.1389 15.9029 17.4021 15.4797C17.6653 15.0565 18.0418 14.7156 18.489 14.4956C18.9362 14.2755 19.4361 14.1853 19.932 14.235C20.4279 14.2847 20.8999 14.4724 21.2945 14.7769C21.689 15.0813 21.9905 15.4902 22.1644 15.9572C22.3383 16.4243 22.3778 16.9307 22.2786 17.4191C22.1792 17.9075 21.945 18.3582 21.6024 18.7202C21.2598 19.0822 20.8226 19.3408 20.3405 19.467C20.1528 19.508 19.9843 19.611 19.862 19.7592C19.7397 19.9074 19.6707 20.0924 19.666 20.2846V21.7775" stroke="currentColor" stroke-width="1.5" stroke-linecap="round" stroke-linejoin="round"/>
<path d="M23.2227 28.887H24.1114C25.83 28.887 27.2217 27.9387 27.2217 26.2209V24.2925" stroke="currentColor" stroke-width="1.5" stroke-linecap="round" stroke-linejoin="round"/>
<path d="M26.332 17.334C27.171 17.3334 27.9831 17.6295 28.6247 18.17C29.2663 18.7105 29.6961 19.4605 29.838 20.2873C29.9799 21.1141 29.8248 21.9645 29.4002 22.688C28.9755 23.4116 28.3087 23.9615 27.5175 24.2407C27.3835 24.2882 27.2401 24.3028 27.0992 24.2834C26.9584 24.264 26.8243 24.211 26.7081 24.129C26.5919 24.047 26.4972 23.9383 26.4318 23.8121C26.3663 23.6859 26.3321 23.5458 26.332 23.4036V17.334Z" stroke="currentColor" stroke-width="1.5" stroke-linecap="round" stroke-linejoin="round"/>
<path d="M13.0025 17.334C12.1636 17.3334 11.3515 17.6295 10.7099 18.17C10.0683 18.7105 9.63847 19.4605 9.49655 20.2873C9.35463 21.1141 9.50972 21.9645 9.93439 22.688C10.3591 23.4116 11.0259 23.9615 11.817 24.2407C11.951 24.2882 12.0945 24.3028 12.2353 24.2834C12.3762 24.264 12.5103 24.211 12.6265 24.129C12.7426 24.047 12.8374 23.9383 12.9028 23.8121C12.9682 23.6859 13.0024 23.5458 13.0025 23.4036V17.334Z" stroke="currentColor" stroke-width="1.5" stroke-linecap="round" stroke-linejoin="round"/>
<path d="M26.3301 18.6669V16.8896C26.3301 15.122 25.6279 13.4267 24.3779 12.1767C23.1279 10.9268 21.4327 10.2246 19.665 10.2246C17.8974 10.2246 16.2021 10.9268 14.9521 12.1767C13.7022 13.4267 13 15.122 13 16.8896V18.6669" stroke="currentColor" stroke-width="1.5" stroke-linecap="round" stroke-linejoin="round"/>
<path d="M19.2207 27.998H22.7753C22.8932 27.998 23.0063 28.0449 23.0895 28.1282C23.1728 28.2116 23.2197 28.3245 23.2197 28.4424V29.331C23.2197 29.4489 23.1728 29.562 23.0895 29.6452C23.0063 29.7285 22.8932 29.7754 22.7753 29.7754H19.2207C18.985 29.7754 18.759 29.6818 18.5923 29.5151C18.4256 29.3484 18.332 29.1224 18.332 28.8868C18.332 28.651 18.4256 28.425 18.5923 28.2583C18.759 28.0916 18.985 27.998 19.2207 27.998Z" stroke="currentColor" stroke-width="1.5" stroke-linecap="round" stroke-linejoin="round"/>
<circle cx="19.6667" cy="24.0002" r="0.666667" fill="currentColor"/>
</g>
<defs>
<clipPath id="clip0_2123_34472">
<rect width="21.3333" height="21.3333" fill="white" transform="translate(9 9.3335)"/>
</clipPath>
</defs>
</svg>