<svg xmlns="http://www.w3.org/2000/svg" viewBox="0 0 60 60" fill="none"><g clip-path="url(#a)"><path stroke="currentColor" stroke-linecap="round" stroke-linejoin="round" stroke-width="1.5" d="M26.001 25.334a3.999 3.999 0 1 1 5.01 3.866A1.287 1.287 0 0 0 30 30.427v2.239M35.332 43.33h1.333c2.578 0 4.666-1.422 4.666-3.999v-2.893"/><path stroke="currentColor" stroke-linecap="round" stroke-linejoin="round" stroke-width="1.5" d="M39.998 26.001a5.332 5.332 0 0 1 1.778 10.36 1.333 1.333 0 0 1-1.778-1.256v-9.104ZM20.003 26.001a5.332 5.332 0 0 0-1.779 10.36 1.333 1.333 0 0 0 1.779-1.256v-9.104Z"/><path stroke="currentColor" stroke-linecap="round" stroke-linejoin="round" stroke-width="1.5" d="M39.998 28v-2.666a9.998 9.998 0 0 0-19.996 0V28M29.333 41.997h5.332a.667.667 0 0 1 .667.667v1.332a.667.667 0 0 1-.667.667h-5.332a1.333 1.333 0 0 1 0-2.666Z"/><circle cx="30" cy="36" r="1" fill="currentColor"/></g><defs><clipPath id="a"><path fill="#fff" d="M14 14h32v32H14z"/></clipPath></defs></svg>