<svg xmlns="http://www.w3.org/2000/svg" fill="none" viewBox="0 0 40 40"><g clip-path="url(#a)"><path stroke="currentColor" stroke-linecap="round" stroke-linejoin="round" stroke-width="1.5" d="M17 16.89a2.666 2.666 0 1 1 3.341 2.577.858.858 0 0 0-.675.818v1.492M23.221 28.887h.889c1.719 0 3.11-.948 3.11-2.666v-1.929"/><path stroke="#353434" stroke-linecap="round" stroke-linejoin="round" stroke-width="1.5" d="M26.331 17.334a3.555 3.555 0 0 1 1.186 6.907.89.89 0 0 1-1.186-.837v-6.07ZM13.002 17.334a3.554 3.554 0 0 0-1.186 6.907.889.889 0 0 0 1.185-.837v-6.07Z"/><path stroke="currentColor" stroke-linecap="round" stroke-linejoin="round" stroke-width="1.5" d="M26.331 18.667V16.89a6.665 6.665 0 0 0-13.33 0v1.777M19.222 27.998h3.555a.444.444 0 0 1 .444.444v.889a.444.444 0 0 1-.444.444h-3.555a.888.888 0 1 1 0-1.777Z"/><circle cx="19.667" cy="24" r=".667" fill="currentColor"/></g><defs><clipPath id="a"><path fill="#fff" d="M9 9.333h21.333v21.333H9z"/></clipPath></defs></svg>