<svg xmlns="http://www.w3.org/2000/svg" viewBox="0 0 26 26" fill="none"><path stroke="currentColor" stroke-linecap="round" stroke-linejoin="round" stroke-width="1.5" d="M24.75 24.75H9.283c-2.986 0-4.48 0-5.621-.581a5.334 5.334 0 0 1-2.33-2.331C.75 20.697.75 19.203.75 16.217V.75"/><path stroke="currentColor" stroke-linecap="round" stroke-linejoin="round" stroke-width="1.5" d="M8.75 4.083v3.758m0 8.485v3.757M19.417 1.417V3.84m0 0c-1-.034-2.667.457-2.667 1.576v8c0 1.966 5.333 2.236 5.333 0v-8c0-.984-1.666-1.543-2.666-1.576Zm0 11.152v5.09m-8-10.666v5.333c0 1.967-5.334 2.236-5.334 0V9.417c0-1.967 5.334-2.236 5.334 0Z"/></svg>