<svg xmlns="http://www.w3.org/2000/svg" fill="none" viewBox="0 0 60 60"><path stroke="currentColor" stroke-linecap="round" stroke-linejoin="round" stroke-width="1.5" d="M42 42H26.533c-2.986 0-4.48 0-5.621-.581a5.334 5.334 0 0 1-2.33-2.331C18 37.947 18 36.453 18 33.467V18"/><path stroke="currentColor" stroke-linecap="round" stroke-linejoin="round" stroke-width="1.5" d="M26 21.333v3.758m0 8.485v3.757m10.667-18.666v2.424m0 0c-1-.034-2.667.457-2.667 1.576v8c0 1.966 5.334 2.236 5.334 0v-8c0-.984-1.667-1.543-2.667-1.576Zm0 11.152v5.09m-8-10.666V32c0 1.967-5.334 2.236-5.334 0v-5.333c0-1.967 5.334-2.236 5.334 0Z"/></svg>