<svg width="32" height="32" viewBox="0 0 32 32" fill="none" xmlns="http://www.w3.org/2000/svg">
  <g clip-path="url(#clip0_629_9482)">
    <path d="M15.3334 23.3333C15.3334 25.4551 16.1762 27.4899 17.6765 28.9902C19.1768 30.4905 21.2116 31.3333 23.3334 31.3333C25.4551 31.3333 27.4899 30.4905 28.9902 28.9902C30.4905 27.4899 31.3334 25.4551 31.3334 23.3333C31.3334 21.2116 30.4905 19.1768 28.9902 17.6765C27.4899 16.1762 25.4551 15.3333 23.3334 15.3333C21.2116 15.3333 19.1768 16.1762 17.6765 17.6765C16.1762 19.1768 15.3334 21.2116 15.3334 23.3333Z" stroke="currentColor" stroke-linecap="round" stroke-linejoin="round" />
    <path d="M23.3334 19.3333V27.3333" stroke="currentColor" stroke-linecap="round" stroke-linejoin="round" />
    <path d="M27.3334 23.3333H19.3334" stroke="currentColor" stroke-linecap="round" stroke-linejoin="round" />
    <path d="M14 31.3333H1.99996C1.64634 31.3333 1.3072 31.1929 1.05715 30.9428C0.807102 30.6928 0.666626 30.3536 0.666626 30V2C0.666626 1.64638 0.807102 1.30724 1.05715 1.05719C1.3072 0.807143 1.64634 0.666667 1.99996 0.666667H19.724C20.0776 0.666743 20.4166 0.807268 20.6666 1.05733L25.6093 6C25.8594 6.24999 25.9999 6.58907 26 6.94267V11.3333" stroke="currentColor" stroke-linecap="round" stroke-linejoin="round" />
  </g>
  <defs>
    <clipPath id="clip0_629_9482">
      <rect width="32" height="32" fill="white" />
    </clipPath>
  </defs>
</svg>