<svg width="24" height="24" viewBox="0 0 24 24" fill="none" xmlns="http://www.w3.org/2000/svg">
  <g clip-path="url(#clip0_491_7697)">
    <path d="M0.5 3.5V1.5C0.5 1.23478 0.605357 0.98043 0.792893 0.792893C0.98043 0.605357 1.23478 0.5 1.5 0.5H3.5" stroke="currentColor" stroke-width="1.5" stroke-linecap="round" stroke-linejoin="round" />
    <path d="M23.5 3.5V1.5C23.5 1.23478 23.3946 0.98043 23.2071 0.792893C23.0196 0.605357 22.7652 0.5 22.5 0.5H20.5" stroke="currentColor" stroke-width="1.5" stroke-linecap="round" stroke-linejoin="round" />
    <path d="M0.5 20.5V22.5C0.5 22.7652 0.605357 23.0196 0.792893 23.2071C0.98043 23.3946 1.23478 23.5 1.5 23.5H3.5" stroke="currentColor" stroke-width="1.5" stroke-linecap="round" stroke-linejoin="round" />
    <path d="M23.5 20.5V22.5C23.5 22.7652 23.3946 23.0196 23.2071 23.2071C23.0196 23.3946 22.7652 23.5 22.5 23.5H20.5" stroke="currentColor" stroke-width="1.5" stroke-linecap="round" stroke-linejoin="round" />
    <path d="M12 15.5C13.933 15.5 15.5 13.933 15.5 12C15.5 10.067 13.933 8.5 12 8.5C10.067 8.5 8.5 10.067 8.5 12C8.5 13.933 10.067 15.5 12 15.5Z" stroke="currentColor" stroke-width="1.5" stroke-linecap="round" stroke-linejoin="round" />
    <path d="M21.8571 12C21.8571 12 17.5711 18 12.0001 18C6.42907 18 2.14307 12 2.14307 12C2.14307 12 6.42907 6 12.0001 6C17.5711 6 21.8571 12 21.8571 12Z" stroke="currentColor" stroke-width="1.5" stroke-linecap="round" stroke-linejoin="round" />
    <path d="M12 12.25C11.8619 12.25 11.75 12.1381 11.75 12C11.75 11.8619 11.8619 11.75 12 11.75" stroke="currentColor" stroke-width="1.5" />
    <path d="M12 12.25C12.1381 12.25 12.25 12.1381 12.25 12C12.25 11.8619 12.1381 11.75 12 11.75" stroke="currentColor" stroke-width="1.5" />
  </g>
  <defs>
    <clipPath id="clip0_491_7697">
      <rect width="24" height="24" fill="white" />
    </clipPath>
  </defs>
</svg>